# xmcd
#
# Track frame offsets:
#	150
#	21475
#	58037
#	75207
#	94074
#	119031
#	137814
#	163142
#	184830
#	203368
#	230512
#	245883
# Disc length: 3644 seconds
# Revision: 1
# Processed by: cddbd v1.5.2PL0 Copyright (c) Steve Scherf et al.
#
# Submitted via: libkcddb 0.31
#
DISCID=a50e3a0c
DTITLE=Willie Kent - Comin' Alive
DYEAR=2001
DGENRE=Blues
TTITLE0=Lonely Streets
TTITLE1=Born In The Delta
TTITLE2=Check It Out
TTITLE3=Look Like It's Gonna Rain
TTITLE4=Lonesome Whistle Blow
TTITLE5=Someone Like You
TTITLE6=Sittin' Here Thinkin'
TTITLE7=Bad Luck
TTITLE8=Don't Tell Me Your Trouble
TTITLE9=I Can't Stop Lovin You
TTITLE10=Something New
TTITLE11=Someone You Should Know
EXTD=
EXTT0=
EXTT1=
EXTT2=
EXTT3=
EXTT4=
EXTT5=
EXTT6=
EXTT7=
EXTT8=
EXTT9=
EXTT10=
EXTT11=
PLAYORDER=
